<svg width="32" height="32" viewBox="0 0 32 32" fill="none" xmlns="http://www.w3.org/2000/svg">
<path d="M2.00659 2.00826L13.8242 13.8259V30.8513H2.00659V2.00826Z" fill="url(#paint0_linear)"/>
<path fill-rule="evenodd" clip-rule="evenodd" d="M19.8606 25.1246C18.0014 26.1184 15.9258 26.6383 13.8177 26.6383L13.8177 13.8192L13.8785 13.88V17.6857C14.5043 17.6857 15.1205 17.5314 15.6725 17.2363C16.2244 16.9413 16.6951 16.5147 17.0428 15.9944C17.3905 15.474 17.6045 14.8759 17.6658 14.2531C17.7272 13.6302 17.634 13.0019 17.3945 12.4237C17.155 11.8455 16.7766 11.3352 16.2928 10.9382C15.809 10.5412 15.2348 10.2696 14.6209 10.1475C14.0071 10.0254 13.3727 10.0566 12.7738 10.2382C12.1749 10.4199 11.63 10.7464 11.1875 11.189L4.75317 4.75464C6.24384 3.26397 8.07913 2.16394 10.0965 1.55199C12.1138 0.940033 14.2509 0.835043 16.3186 1.24632C18.3862 1.65759 20.3204 2.57243 21.95 3.90981C23.5796 5.24719 24.8543 6.96582 25.661 8.91347C26.4677 10.8611 26.7817 12.9777 26.5751 15.0756C26.3684 17.1736 25.6476 19.1882 24.4764 20.9411C23.3052 22.6939 21.7198 24.1308 19.8606 25.1246Z" fill="black" fill-opacity="0.5"/>
<path fill-rule="evenodd" clip-rule="evenodd" d="M30.843 30.8445H2V2.0015L13.8786 13.8801V17.6857C14.5044 17.6857 15.1206 17.5314 15.6726 17.2363C16.0039 17.0593 16.3059 16.8348 16.5696 16.5711L30.843 30.8445Z" fill="black" fill-opacity="0.5"/>
<defs>
<linearGradient id="paint0_linear" x1="4.91093" y1="30.8513" x2="5.11123" y2="2.00826" gradientUnits="userSpaceOnUse">
<stop/>
<stop offset="1" stop-opacity="0.2"/>
</linearGradient>
</defs>
</svg>
