<svg width="144" height="149" viewBox="0 0 144 149" fill="none" xmlns="http://www.w3.org/2000/svg">
<path d="M1 5L59.604 63.604V148.034H1V5Z" fill="url(#paint0_linear)"/>
<path fill-rule="evenodd" clip-rule="evenodd" d="M94.8765 98.7825C85.5626 108.096 72.9302 113.329 59.7584 113.329V63.7584L59.8725 63.8725L59.8725 82.745C62.9761 82.745 66.0318 81.9795 68.7689 80.5165C71.506 79.0535 73.8401 76.938 75.5644 74.3575C77.2886 71.7769 78.3499 68.811 78.6541 65.7223C78.9583 62.6337 78.4961 59.5176 77.3084 56.6503C76.1207 53.7829 74.2442 51.2528 71.8451 49.2839C69.4459 47.315 66.5983 45.9681 63.5543 45.3626C62.2999 45.1131 61.0281 44.9927 59.7584 45.0003L59.7584 14C72.9303 14 85.5626 19.2325 94.8765 28.5464C104.19 37.8603 109.423 50.4926 109.423 63.6644C109.423 76.8363 104.19 89.4686 94.8765 98.7825Z" fill="url(#paint1_linear)" fill-opacity="0.6"/>
<path fill-rule="evenodd" clip-rule="evenodd" d="M24.5464 98.7825C33.8603 108.096 46.4926 113.329 59.6644 113.329V63.6644L46.5276 50.5276C48.7222 48.333 51.4241 46.7136 54.3941 45.8126C56.1099 45.2922 57.8846 45.0208 59.6644 45.0011L59.6644 14C46.4926 14 33.8603 19.2325 24.5464 28.5464C15.2325 37.8603 10 50.4926 10 63.6644C10 76.8363 15.2325 89.4686 24.5464 98.7825Z" fill="url(#paint2_linear)"/>
<path fill-rule="evenodd" clip-rule="evenodd" d="M89.5374 119.635C80.3176 124.563 70.0247 127.141 59.5705 127.141L59.5705 63.5705L59.8726 63.8725V82.745C62.9762 82.745 66.0319 81.9796 68.769 80.5165C71.5061 79.0535 73.8402 76.938 75.5645 74.3575C77.2887 71.7769 78.35 68.811 78.6542 65.7223C78.9584 62.6337 78.4962 59.5176 77.3085 56.6503C76.1208 53.7829 74.2443 51.2528 71.8451 49.2839C69.446 47.315 66.5984 45.9681 63.5544 45.3626C60.5104 44.7571 57.3641 44.9117 54.3942 45.8126C51.4242 46.7136 48.7223 48.333 46.5277 50.5276L14.6194 18.6194C22.0116 11.2271 31.1129 5.77202 41.117 2.73732C51.121 -0.297376 61.7191 -0.818025 71.9725 1.22149C82.2258 3.26101 91.8179 7.79775 99.8992 14.4298C107.98 21.0619 114.301 29.5847 118.302 39.2431C122.303 48.9016 123.86 59.3976 122.835 69.8015C121.81 80.2054 118.235 90.196 112.427 98.8883C106.619 107.581 98.7572 114.707 89.5374 119.635Z" fill="black" fill-opacity="0.5"/>
<path fill-rule="evenodd" clip-rule="evenodd" d="M144 148H0.966553V4.96645L46.5277 50.5276L59.8725 63.8725V82.745C62.9761 82.745 66.0318 81.9796 68.769 80.5165C70.4119 79.6384 71.9096 78.5251 73.2174 77.2173L144 148Z" fill="url(#paint3_linear)"/>
<defs>
<linearGradient id="paint0_linear" x1="15.4027" y1="148.034" x2="16.396" y2="5" gradientUnits="userSpaceOnUse">
<stop/>
<stop offset="1" stop-opacity="0.2"/>
</linearGradient>
<linearGradient id="paint1_linear" x1="109.423" y1="63.6644" x2="10.094" y2="63.6644" gradientUnits="userSpaceOnUse">
<stop/>
<stop offset="1" stop-opacity="0.2"/>
</linearGradient>
<linearGradient id="paint2_linear" x1="109.329" y1="63.6644" x2="10" y2="63.6644" gradientUnits="userSpaceOnUse">
<stop/>
<stop offset="1" stop-opacity="0.2"/>
</linearGradient>
<linearGradient id="paint3_linear" x1="144" y1="148" x2="33.7451" y2="148" gradientUnits="userSpaceOnUse">
<stop/>
<stop offset="1" stop-opacity="0.2"/>
</linearGradient>
</defs>
</svg>
